<svg width="334" height="98" viewBox="0 0 334 98" fill="none" xmlns="http://www.w3.org/2000/svg">
<path d="M0.48378 22.6573V2.12129H82.0776V22.6573H53.8406V96H28.7207V22.6573H0.48378ZM87.7969 96V2.12129H113.284V75.464H151.238V96H87.7969ZM244.958 49.0606C244.958 59.512 242.925 68.3284 238.861 75.5099C234.797 82.6608 229.311 88.0851 222.405 91.7828C215.498 95.4499 207.797 97.2835 199.302 97.2835C190.745 97.2835 183.014 95.4346 176.107 91.737C169.231 88.0087 163.761 82.5691 159.697 75.4182C155.663 68.2367 153.646 59.4509 153.646 49.0606C153.646 38.6093 155.663 29.8082 159.697 22.6573C163.761 15.4758 169.231 10.0515 176.107 6.38434C183.014 2.68664 190.745 0.837792 199.302 0.837792C207.797 0.837792 215.498 2.68664 222.405 6.38434C229.311 10.0515 234.797 15.4758 238.861 22.6573C242.925 29.8082 244.958 38.6093 244.958 49.0606ZM218.738 49.0606C218.738 43.4377 217.989 38.701 216.491 34.8505C215.025 30.9694 212.84 28.0357 209.936 26.0494C207.064 24.0324 203.519 23.024 199.302 23.024C195.085 23.024 191.524 24.0324 188.621 26.0494C185.749 28.0357 183.564 30.9694 182.066 34.8505C180.599 38.701 179.866 43.4377 179.866 49.0606C179.866 54.6836 180.599 59.4356 182.066 63.3166C183.564 67.1671 185.749 70.1008 188.621 72.1178C191.524 74.1041 195.085 75.0973 199.302 75.0973C203.519 75.0973 207.064 74.1041 209.936 72.1178C212.84 70.1008 215.025 67.1671 216.491 63.3166C217.989 59.4356 218.738 54.6836 218.738 49.0606ZM308.434 2.12129H333.921V62.2623C333.921 69.4133 332.21 75.6016 328.787 80.8272C325.395 86.0223 320.658 90.0409 314.577 92.8829C308.495 95.6944 301.436 97.1001 293.399 97.1001C285.301 97.1001 278.211 95.6944 272.13 92.8829C266.048 90.0409 261.312 86.0223 257.92 80.8272C254.558 75.6016 252.877 69.4133 252.877 62.2623V2.12129H278.364V60.0621C278.364 62.9652 279.006 65.5628 280.289 67.8547C281.573 70.1161 283.345 71.8886 285.606 73.1721C287.898 74.4556 290.496 75.0973 293.399 75.0973C296.333 75.0973 298.93 74.4556 301.192 73.1721C303.453 71.8886 305.226 70.1161 306.509 67.8547C307.793 65.5628 308.434 62.9652 308.434 60.0621V2.12129Z" fill="black"/>
</svg>
