<svg width="350" height="146" viewBox="0 0 350 146" fill="none" xmlns="http://www.w3.org/2000/svg">
<path d="M25.0181 19.3583V10.1448H68.4276V19.3583H52.2458V63H41.1999V19.3583H25.0181ZM68.3088 63V10.1448H79.4838V31.9527H102.169V10.1448H113.318V63H102.169V41.1662H79.4838V63H68.3088ZM115.264 63V10.1448H150.88V19.3583H126.439V31.9527H149.047V41.1662H126.439V53.7865H150.983V63H115.264ZM162.049 63V10.1448H173.224V53.7865H195.884V63H162.049ZM206.476 63H194.501L212.747 10.1448H227.148L245.369 63H233.394L220.154 22.223H219.741L206.476 63ZM205.727 42.2244H234.013V50.9476H205.727V42.2244ZM271.929 25.3458C271.723 23.264 270.837 21.6466 269.271 20.4939C267.705 19.3411 265.58 18.7647 262.896 18.7647C261.073 18.7647 259.533 19.0228 258.277 19.539C257.021 20.0379 256.057 20.7347 255.386 21.6294C254.732 22.5241 254.405 23.5392 254.405 24.6748C254.371 25.6211 254.569 26.447 254.999 27.1524C255.446 27.8578 256.057 28.4686 256.831 28.9848C257.606 29.4837 258.5 29.9225 259.515 30.301C260.531 30.6623 261.615 30.972 262.767 31.2301L267.516 32.3656C269.822 32.8818 271.938 33.57 273.865 34.4303C275.792 35.2906 277.461 36.3487 278.872 37.6047C280.282 38.8607 281.375 40.3404 282.149 42.0437C282.941 43.7471 283.345 45.6999 283.362 47.9022C283.345 51.1368 282.519 53.9413 280.885 56.3157C279.267 58.6728 276.927 60.5052 273.865 61.8128C270.819 63.1032 267.146 63.7484 262.845 63.7484C258.578 63.7484 254.861 63.0946 251.696 61.787C248.547 60.4794 246.087 58.5438 244.314 55.9802C242.559 53.3993 241.639 50.2077 241.553 46.4053H252.367C252.487 48.1775 252.995 49.6572 253.889 50.8443C254.801 52.0143 256.014 52.9004 257.528 53.5026C259.06 54.0876 260.789 54.3801 262.716 54.3801C264.608 54.3801 266.251 54.1048 267.645 53.5542C269.056 53.0036 270.148 52.238 270.923 51.2573C271.697 50.2765 272.084 49.1496 272.084 47.8764C272.084 46.6892 271.731 45.6913 271.026 44.8826C270.338 44.074 269.323 43.3858 267.981 42.818C266.656 42.2502 265.03 41.734 263.103 41.2695L257.348 39.8242C252.891 38.7403 249.373 37.0455 246.792 34.74C244.211 32.4345 242.929 29.3289 242.947 25.4232C242.929 22.223 243.781 19.4271 245.502 17.0356C247.239 14.644 249.622 12.7772 252.65 11.4352C255.679 10.0932 259.12 9.42214 262.974 9.42214C266.897 9.42214 270.32 10.0932 273.245 11.4352C276.188 12.7772 278.476 14.644 280.11 17.0356C281.745 19.4271 282.588 22.1972 282.64 25.3458H271.929ZM281.598 19.3583V10.1448H325.008V19.3583H308.826V63H297.78V19.3583H281.598ZM134.289 109.572C134.289 115.336 133.197 120.24 131.012 124.283C128.844 128.326 125.885 131.415 122.134 133.548C118.4 135.664 114.202 136.723 109.539 136.723C104.842 136.723 100.627 135.656 96.8934 133.522C93.1598 131.389 90.209 128.301 88.0412 124.257C85.8733 120.214 84.7893 115.319 84.7893 109.572C84.7893 103.809 85.8733 98.905 88.0412 94.8617C90.209 90.8184 93.1598 87.7386 96.8934 85.6224C100.627 83.4889 104.842 82.4221 109.539 82.4221C114.202 82.4221 118.4 83.4889 122.134 85.6224C125.885 87.7386 128.844 90.8184 131.012 94.8617C133.197 98.905 134.289 103.809 134.289 109.572ZM122.96 109.572C122.96 105.839 122.4 102.69 121.282 100.127C120.181 97.563 118.624 95.6187 116.611 94.2939C114.598 92.9691 112.241 92.3067 109.539 92.3067C106.838 92.3067 104.481 92.9691 102.468 94.2939C100.455 95.6187 98.8892 97.563 97.7709 100.127C96.6697 102.69 96.1191 105.839 96.1191 109.572C96.1191 113.306 96.6697 116.455 97.7709 119.018C98.8892 121.582 100.455 123.526 102.468 124.851C104.481 126.176 106.838 126.838 109.539 126.838C112.241 126.838 114.598 126.176 116.611 124.851C118.624 123.526 120.181 121.582 121.282 119.018C122.4 116.455 122.96 113.306 122.96 109.572ZM135.3 136V83.1448H170.296V92.3583H146.475V104.953H167.973V114.166H146.475V136H135.3ZM212.745 83.1448H223.92V117.47C223.92 121.324 223 124.696 221.159 127.587C219.335 130.477 216.78 132.731 213.494 134.348C210.207 135.948 206.379 136.748 202.009 136.748C197.622 136.748 193.785 135.948 190.498 134.348C187.212 132.731 184.657 130.477 182.833 127.587C181.01 124.696 180.098 121.324 180.098 117.47V83.1448H191.273V116.515C191.273 118.528 191.711 120.317 192.589 121.883C193.484 123.449 194.74 124.679 196.357 125.573C197.974 126.468 199.858 126.916 202.009 126.916C204.177 126.916 206.061 126.468 207.661 125.573C209.278 124.679 210.526 123.449 211.403 121.883C212.298 120.317 212.745 118.528 212.745 116.515V83.1448ZM254.52 98.3458C254.313 96.264 253.427 94.6466 251.861 93.4939C250.296 92.3411 248.171 91.7647 245.487 91.7647C243.663 91.7647 242.123 92.0228 240.867 92.539C239.611 93.0379 238.648 93.7347 237.977 94.6294C237.323 95.5241 236.996 96.5392 236.996 97.6748C236.961 98.6211 237.159 99.447 237.589 100.152C238.037 100.858 238.648 101.469 239.422 101.985C240.196 102.484 241.091 102.922 242.106 103.301C243.121 103.662 244.205 103.972 245.358 104.23L250.106 105.366C252.412 105.882 254.528 106.57 256.455 107.43C258.382 108.291 260.051 109.349 261.462 110.605C262.873 111.861 263.965 113.34 264.74 115.044C265.531 116.747 265.935 118.7 265.953 120.902C265.935 124.137 265.11 126.941 263.475 129.316C261.858 131.673 259.518 133.505 256.455 134.813C253.41 136.103 249.737 136.748 245.435 136.748C241.168 136.748 237.452 136.095 234.286 134.787C231.137 133.479 228.677 131.544 226.905 128.98C225.15 126.399 224.229 123.208 224.143 119.405H234.957C235.077 121.177 235.585 122.657 236.48 123.844C237.392 125.014 238.605 125.9 240.119 126.503C241.65 127.088 243.379 127.38 245.306 127.38C247.199 127.38 248.842 127.105 250.235 126.554C251.646 126.004 252.739 125.238 253.513 124.257C254.287 123.277 254.674 122.15 254.674 120.876C254.674 119.689 254.322 118.691 253.616 117.883C252.928 117.074 251.913 116.386 250.571 115.818C249.246 115.25 247.62 114.734 245.693 114.269L239.938 112.824C235.482 111.74 231.963 110.046 229.382 107.74C226.802 105.434 225.52 102.329 225.537 98.4232C225.52 95.223 226.371 92.4271 228.092 90.0356C229.83 87.644 232.213 85.7772 235.241 84.4352C238.269 83.0932 241.71 82.4221 245.564 82.4221C249.487 82.4221 252.911 83.0932 255.836 84.4352C258.778 85.7772 261.066 87.644 262.701 90.0356C264.335 92.4271 265.178 95.1972 265.23 98.3458H254.52Z" fill="black"/>
<path d="M330.794 13.0769C330.794 12.4238 330.879 11.8234 331.048 11.2757C331.219 10.7263 331.463 10.2209 331.779 9.75962H332.318C332.193 9.93067 332.077 10.1415 331.968 10.392C331.861 10.6408 331.767 10.9146 331.685 11.2135C331.604 11.5107 331.54 11.8182 331.494 12.1361C331.449 12.454 331.426 12.7676 331.426 13.0769C331.426 13.4881 331.466 13.9053 331.545 14.3286C331.625 14.7519 331.732 15.145 331.867 15.5078C332.002 15.8707 332.152 16.1661 332.318 16.3942H331.779C331.463 15.9329 331.219 15.4284 331.048 14.8807C330.879 14.3312 330.794 13.73 330.794 13.0769ZM333.521 15.7307H332.847L334.796 10.4231H335.459L337.408 15.7307H336.735L335.148 11.2628H335.107L333.521 15.7307ZM333.77 13.6574H336.486V14.2276H333.77V13.6574ZM339.458 13.0769C339.458 13.73 339.373 14.3312 339.202 14.8807C339.032 15.4284 338.79 15.9329 338.474 16.3942H337.934C338.059 16.2231 338.175 16.0123 338.282 15.7618C338.391 15.513 338.486 15.24 338.567 14.9429C338.648 14.644 338.711 14.3356 338.756 14.0177C338.803 13.698 338.826 13.3844 338.826 13.0769C338.826 12.6657 338.786 12.2484 338.707 11.8251C338.627 11.4018 338.52 11.0088 338.385 10.646C338.251 10.2831 338.1 9.98768 337.934 9.75962H338.474C338.79 10.2209 339.032 10.7263 339.202 11.2757C339.373 11.8234 339.458 12.4238 339.458 13.0769Z" fill="black"/>
<path d="M272.198 84.8408C272.198 84.1877 272.283 83.5873 272.452 83.0396C272.623 82.4902 272.867 81.9848 273.183 81.5235H273.722C273.598 81.6946 273.481 81.9054 273.372 82.1559C273.265 82.4047 273.171 82.6785 273.09 82.9774C273.008 83.2746 272.944 83.5821 272.898 83.9001C272.853 84.218 272.83 84.5315 272.83 84.8408C272.83 85.252 272.87 85.6693 272.95 86.0926C273.029 86.5159 273.136 86.9089 273.271 87.2717C273.406 87.6346 273.556 87.93 273.722 88.1581H273.183C272.867 87.6968 272.623 87.1923 272.452 86.6446C272.283 86.0952 272.198 85.4939 272.198 84.8408ZM274.707 87.4946V82.187H276.563C276.933 82.187 277.238 82.2509 277.478 82.3788C277.718 82.5049 277.897 82.6751 278.014 82.8893C278.132 83.1018 278.191 83.3377 278.191 83.5968C278.191 83.8249 278.15 84.0132 278.069 84.1618C277.989 84.3104 277.884 84.4279 277.753 84.5143C277.623 84.6007 277.482 84.6646 277.33 84.706V84.7579C277.493 84.7682 277.656 84.8253 277.82 84.9289C277.984 85.0326 278.121 85.1812 278.232 85.3747C278.343 85.5682 278.398 85.8049 278.398 86.0848C278.398 86.3509 278.337 86.5902 278.216 86.8027C278.096 87.0152 277.905 87.1836 277.644 87.308C277.383 87.4324 277.043 87.4946 276.625 87.4946H274.707ZM275.35 86.9245H276.625C277.045 86.9245 277.343 86.8433 277.519 86.6809C277.697 86.5167 277.786 86.318 277.786 86.0848C277.786 85.9051 277.74 85.7392 277.649 85.5872C277.557 85.4334 277.427 85.3108 277.258 85.2192C277.088 85.1259 276.888 85.0792 276.656 85.0792H275.35V86.9245ZM275.35 84.5194H276.542C276.736 84.5194 276.91 84.4814 277.066 84.4054C277.223 84.3294 277.347 84.2223 277.439 84.0841C277.532 83.9458 277.579 83.7834 277.579 83.5968C277.579 83.3636 277.498 83.1658 277.335 83.0034C277.173 82.8392 276.915 82.7571 276.563 82.7571H275.35V84.5194ZM280.677 84.8408C280.677 85.4939 280.592 86.0952 280.421 86.6446C280.251 87.1923 280.009 87.6968 279.692 88.1581H279.153C279.278 87.987 279.394 87.7763 279.501 87.5257C279.609 87.2769 279.705 87.0039 279.786 86.7068C279.867 86.4079 279.93 86.0995 279.975 85.7816C280.022 85.4619 280.045 85.1483 280.045 84.8408C280.045 84.4296 280.005 84.0124 279.926 83.5891C279.846 83.1658 279.739 82.7727 279.604 82.4099C279.47 82.047 279.319 81.7516 279.153 81.5235H279.692C280.009 81.9848 280.251 82.4902 280.421 83.0396C280.592 83.5873 280.677 84.1877 280.677 84.8408Z" fill="black"/>
</svg>
